# xmcd
#
# Track frame offsets:
#	161
#	17494
#	32722
#	50554
#	63527
#	81446
#	96460
#	115231
#	134772
#	148335
#	163627
#	181949
#
# Disc length: 2639 seconds
#
# Revision: 3
# Processed by: cddbd v1.5.2PL0 Copyright (c) Steve Scherf et al.
# Submitted via: EZCDAudioConverter 8.2.2.1
#
DISCID=b10a4d0c
DTITLE=LEANDRO and LEONARDO - SUCESSOS DE OURO - CD 01 [CD 398420837-2) CHANTECL
DTITLE=ER
DYEAR=1997
DGENRE=SERTANEJO
TTITLE0=É POR VOCÊ QUE EU CANTO (BY GILMAR SINISTRO)
TTITLE1=ENTRE TAPAS E BEIJOS (BY GILMAR SINISTRO)
TTITLE2=SOLIDÃO (BY GILMAR SINISTRO)
TTITLE3=CONTRADIÇÕES (BY GILMAR SINISTRO)
TTITLE4=O CHEIRO DA MAÇÃ (BY GILMAR SINISTRO)
TTITLE5=PENSE EM MIM (BY GILMAR SINISTRO)
TTITLE6=DESCULPE MAS EU VOU CHORAR (BY GILMAR SINISTRO)
TTITLE7=TALISMÃ (BY GILMAR SINISTRO)
TTITLE8=CADÊ VOCÊ (BY GILMAR SINISTRO)
TTITLE9=CORAÇÃO QUER TE ENCONTRAR (BY GILMAR SINISTRO)
TTITLE10=SONHO POR SONHO (BY GILMAR SINISTRO)
TTITLE11=BATE CORAÇÃO (BY GILMAR SINISTRO)
EXTD=
EXTT0=
EXTT1=
EXTT2=
EXTT3=
EXTT4=
EXTT5=
EXTT6=
EXTT7=
EXTT8=
EXTT9=
EXTT10=
EXTT11=
PLAYORDER=
